<svg width="358" height="103" viewBox="0 0 358 103" fill="none" xmlns="http://www.w3.org/2000/svg">
<g filter="url(#filter0_dd_1_408)">
<path d="M116.732 50.0225V10.0466H134.055C136.499 10.9341 138.386 12.4897 138.386 16.7093V22.6506C138.386 25.8698 137.275 28.1466 134 29.3133C137.275 30.4783 138.386 32.7551 138.386 35.9759V43.3598C138.386 47.5795 136.499 49.1334 134.055 50.0225H116.732ZM125.615 26.7024H128.948L129.503 26.1473V17.2644L128.948 16.7093H125.615V26.7024ZM129.503 42.8048V33.9218L128.948 33.3651H125.615V43.3598H128.948L129.503 42.8048Z" fill="#1A1818"/>
<path d="M141.159 50.0225V10.0466H158.48C160.925 10.9357 162.813 12.4897 162.813 16.7093V25.2034C162.813 29.0357 161.257 30.701 159.093 31.645L163.866 44.4152V50.0225H156.095L150.986 34.4769H150.042V50.0225H141.159ZM150.042 17.2644V27.2591H153.373L153.93 26.704V17.8194L153.373 17.2644H150.042Z" fill="#1A1818"/>
<path d="M178.132 42.2497H173.913L173.248 50.0241H164.92V43.305L169.971 10.0466H182.074L187.127 43.305V50.0241H178.799L178.132 42.2497ZM174.636 33.9218H177.411L176.301 21.3178H175.746L174.636 33.9218Z" fill="#1A1818"/>
<path d="M189.344 50.0224V41.6945H191.011V18.3744H189.344V10.0449H201.559V18.3744H199.892V41.6945H201.559V50.0224H189.344Z" fill="#1A1818"/>
<path d="M218.213 10.0466H225.986V50.0241H218.213L212.662 32.5889H212.107V50.0241H204.333V10.0466H212.107L217.658 27.4818H218.213V10.0466Z" fill="#1A1818"/>
<path d="M250.135 34.2541V43.3598C250.135 47.5794 248.247 49.1333 245.806 50.0224H232.813C230.37 49.1333 228.482 47.5794 228.482 43.3598V35.4756H237.365V42.2496L237.922 42.8047H240.697L241.252 42.2496V36.142L240.752 35.3643L231.592 31.256C228.871 30.0345 228.482 28.1465 228.482 25.1484V16.7092C228.482 12.4896 230.37 10.934 232.813 10.0449H245.806C248.247 10.934 250.135 12.4896 250.135 16.7092V24.1496H241.252V17.8194L240.697 17.2643H237.922L237.365 17.8194V23.6494L238.086 24.5369L247.028 28.1465C249.746 29.2567 250.135 31.256 250.135 34.2541Z" fill="#1A1818"/>
<path d="M266.789 18.3744V50.0224H257.905V18.3744H251.52V10.0449H273.175V18.3744H266.789Z" fill="#1A1818"/>
<path d="M296.49 43.3598C296.49 47.5795 294.602 49.1334 292.159 50.0225H279.168C276.725 49.1334 274.837 47.5795 274.837 43.3598V16.7093C274.837 12.4897 276.725 10.9341 279.168 10.0466H292.159C294.602 10.9341 296.49 12.4897 296.49 16.7093V43.3598ZM287.607 17.8194L287.05 17.2644H284.276L283.72 17.8194V42.2497L284.276 42.8048H287.05L287.607 42.2497V17.8194Z" fill="#1A1818"/>
<path d="M299.264 50.0225V10.0466H316.586C319.029 10.9357 320.917 12.4897 320.917 16.7093V25.2034C320.917 29.0357 319.363 30.701 317.197 31.645L321.972 44.4152V50.0225H314.199L309.091 34.4769H308.147V50.0225H299.264ZM308.147 17.2644V27.2591H311.477L312.034 26.704V17.8194L311.477 17.2644H308.147Z" fill="#1A1818"/>
<path d="M332.183 27.2591H331.906V50.0241H323.578V10.0466H333.295L338.015 23.9286H338.568L343.288 10.0466H353.005V50.0241H344.677V27.2591H344.4L341.623 36.1421H334.96L332.183 27.2591Z" fill="#1A1818"/>
<path d="M134.277 62.1923L130.903 82.0464C130.842 82.4078 130.602 82.6192 130.24 82.6192H129.788C129.427 82.6192 129.186 82.4385 129.094 82.077L125.54 64.7241L121.925 82.077C121.865 82.4691 121.623 82.6192 121.293 82.6192H120.779C120.418 82.6192 120.178 82.4078 120.118 82.0464L116.744 62.1923C116.683 61.7696 116.894 61.5308 117.315 61.5308H117.707C118.069 61.5308 118.309 61.7421 118.37 62.1036L121.141 79.3048L124.636 62.0729C124.697 61.7115 124.967 61.5308 125.33 61.5308H125.782C126.143 61.5308 126.384 61.7115 126.474 62.0729L129.938 79.3048L132.741 62.1036C132.801 61.7421 133.012 61.5308 133.374 61.5308H133.705C134.126 61.5308 134.337 61.7696 134.277 62.1923Z" fill="#1A1818"/>
<path d="M150.935 82.6192H143.825C143.433 82.6192 143.191 82.4078 143.191 82.0157V62.1326C143.191 61.7421 143.433 61.5308 143.825 61.5308H150.844C151.236 61.5308 151.477 61.7421 151.477 62.1326V62.4037C151.477 62.7958 151.236 63.0363 150.844 63.0363H144.819V71.1722H149.91C150.302 71.1722 150.543 71.411 150.543 71.8031V72.0451C150.543 72.4356 150.302 72.6777 149.91 72.6777H144.819V81.1137H150.935C151.327 81.1137 151.567 81.3541 151.567 81.7462V82.0157C151.567 82.4078 151.327 82.6192 150.935 82.6192Z" fill="#1A1818"/>
<path d="M179.401 62.131V62.4037C179.401 62.7942 179.16 63.0363 178.768 63.0363H175.425V82.0157C175.425 82.4078 175.183 82.6176 174.792 82.6176H174.4C174.008 82.6176 173.797 82.4078 173.797 82.0157V63.0363H170.455C170.063 63.0363 169.821 62.7942 169.821 62.4037V62.131C169.821 61.7405 170.063 61.5308 170.455 61.5308H178.768C179.16 61.5308 179.401 61.7405 179.401 62.131Z" fill="#1A1818"/>
<path d="M188.466 61.5308H188.858C189.25 61.5308 189.46 61.7421 189.46 62.131V71.1415H196.24V62.131C196.24 61.7421 196.45 61.5308 196.842 61.5308H197.234C197.626 61.5308 197.867 61.7421 197.867 62.131V82.0157C197.867 82.4078 197.626 82.6192 197.234 82.6192H196.842C196.45 82.6192 196.24 82.4078 196.24 82.0157V72.647H189.46V82.0157C189.46 82.4078 189.25 82.6192 188.858 82.6192H188.466C188.074 82.6192 187.835 82.4078 187.835 82.0157V62.131C187.835 61.7421 188.074 61.5308 188.466 61.5308Z" fill="#1A1818"/>
<path d="M209.012 82.6192H208.62C208.23 82.6192 207.988 82.4078 207.988 82.0157V62.1326C207.988 61.7421 208.23 61.5308 208.62 61.5308H209.012C209.404 61.5308 209.616 61.7421 209.616 62.1326V82.0157C209.616 82.4078 209.404 82.6192 209.012 82.6192Z" fill="#1A1818"/>
<path d="M220.73 82.6192H220.398C220.006 82.6192 219.765 82.4078 219.765 82.0157V62.1326C219.765 61.7421 220.006 61.5308 220.398 61.5308H220.942C221.303 61.5308 221.513 61.6808 221.634 62.0116L228.351 78.7626V62.1326C228.351 61.7421 228.563 61.5308 228.955 61.5308H229.286C229.678 61.5308 229.918 61.7421 229.918 62.1326V82.0157C229.918 82.4078 229.678 82.6192 229.286 82.6192H228.834C228.474 82.6192 228.232 82.4691 228.14 82.1383L221.334 65.2663V82.0157C221.334 82.4078 221.122 82.6192 220.73 82.6192Z" fill="#1A1818"/>
<path d="M249.711 82.6192H249.227C248.896 82.6192 248.656 82.4691 248.535 82.1077L244.288 71.0495L241.544 75.5402V82.0157C241.544 82.4078 241.335 82.6192 240.942 82.6192H240.55C240.158 82.6192 239.919 82.4078 239.919 82.0157V62.1326C239.919 61.7421 240.158 61.5308 240.55 61.5308H240.942C241.335 61.5308 241.544 61.7421 241.544 62.1326V72.9197L247.992 61.981C248.144 61.6808 248.444 61.5308 248.746 61.5308H249.227C249.711 61.5308 249.921 61.8309 249.65 62.2537L245.312 69.3633L250.192 81.8963C250.343 82.319 250.163 82.6192 249.711 82.6192Z" fill="#1A1818"/>
<path d="M277.033 78.5512C276.912 78.8836 276.702 79.0644 276.4 79.0644C276.068 79.0644 275.858 78.8836 275.737 78.5512L270.978 65.6568V82.0157C270.978 82.4078 270.767 82.6192 270.375 82.6192H270.073C269.681 82.6192 269.441 82.4078 269.441 82.0157V62.131C269.441 61.7405 269.681 61.5308 270.073 61.5308H270.525C270.856 61.5308 271.129 61.7115 271.217 62.0423L276.341 76.1421L281.522 62.0423C281.641 61.7115 281.914 61.5308 282.245 61.5308H282.758C283.15 61.5308 283.389 61.7405 283.389 62.131V82.0157C283.389 82.4078 283.15 82.6192 282.758 82.6192H282.396C282.004 82.6192 281.764 82.4078 281.764 82.0157V65.6568L277.033 78.5512Z" fill="#1A1818"/>
<path d="M302.969 62.131V78.4012C302.969 81.4122 301.402 82.8596 298.208 82.8596H298.087C294.894 82.8596 293.327 81.4429 293.327 78.4012V62.131C293.327 61.7405 293.569 61.5308 293.961 61.5308H294.352C294.744 61.5308 294.955 61.7405 294.955 62.131V77.859C294.955 80.3585 295.767 81.3541 298.149 81.3541C300.529 81.3541 301.34 80.3585 301.34 77.859V62.131C301.34 61.7405 301.552 61.5308 301.944 61.5308H302.336C302.727 61.5308 302.969 61.7405 302.969 62.131Z" fill="#1A1818"/>
<path d="M321.315 68.821H320.923C320.562 68.821 320.32 68.5789 320.32 68.1884V66.1101C320.32 63.7897 319.478 62.765 317.217 62.765C314.958 62.765 314.114 63.7897 314.114 66.1101V67.5849C314.114 69.1517 314.658 69.5745 316.254 70.4184L319.478 72.195C320.954 72.9776 322.009 74.1524 322.009 75.7498V78.4623C322.009 81.4734 320.47 82.8595 317.278 82.8595H317.217C314.023 82.8595 312.487 81.504 312.487 78.4623V75.6595C312.487 75.2674 312.729 75.0269 313.121 75.0269H313.512C313.873 75.0269 314.114 75.2674 314.114 75.6595V77.9799C314.114 80.268 314.958 81.3846 317.247 81.3846C319.537 81.3846 320.381 80.268 320.381 77.9799V76.292C320.381 74.7252 319.749 74.183 318.153 73.2794L314.988 71.5625C313.241 70.5685 312.487 69.7552 312.487 68.0674V65.626C312.487 62.7344 314.296 61.2886 317.186 61.2886H317.247C320.139 61.2886 321.948 62.7344 321.948 65.626V68.1884C321.948 68.5789 321.706 68.821 321.315 68.821Z" fill="#1A1818"/>
<path d="M332.671 82.6192H332.28C331.888 82.6192 331.646 82.4078 331.646 82.0157V62.1326C331.646 61.7421 331.888 61.5308 332.28 61.5308H332.671C333.063 61.5308 333.274 61.7421 333.274 62.1326V82.0157C333.274 82.4078 333.063 82.6192 332.671 82.6192Z" fill="#1A1818"/>
<path d="M353.005 74.9059V78.401C353.005 81.4137 351.377 82.8595 348.184 82.8595H348.124C344.931 82.8595 343.303 81.4427 343.303 78.401V65.7486C343.303 62.8554 344.931 61.2886 348.124 61.2886H348.184C351.377 61.2886 353.005 62.8554 353.005 65.7486V68.729C353.005 69.1211 352.763 69.3631 352.371 69.3631H351.981C351.589 69.3631 351.377 69.1211 351.377 68.729V66.2892C351.377 63.8203 350.504 62.7957 348.155 62.7957C345.804 62.7957 344.931 63.8203 344.931 66.2892V77.8588C344.931 80.3293 345.804 81.354 348.155 81.354C350.504 81.354 351.377 80.3293 351.377 77.8588V74.9059C351.377 74.5138 351.589 74.275 351.981 74.275H352.371C352.763 74.275 353.005 74.5138 353.005 74.9059Z" fill="#1A1818"/>
<path d="M97.7853 47.5002C97.7853 73.3989 76.7905 94.3921 50.8935 94.3921C24.9948 94.3921 4 73.3989 4 47.5002C4 21.6016 24.9948 0.608398 50.8935 0.608398C76.7905 0.608398 97.7853 21.6016 97.7853 47.5002Z" fill="#1A1818"/>
<path d="M88.336 47.1227C88.1472 45.8544 87.5034 44.7603 86.4723 43.9632C86.469 43.9438 86.4642 43.9261 86.4594 43.9083C86.2915 43.1935 85.9785 41.8655 84.6908 40.6827C84.6021 40.6004 84.5101 40.5213 84.4165 40.4455C84.2648 39.3095 83.9712 37.4038 83.5435 35.879C83.2692 34.8979 82.8578 33.7538 82.4753 32.7582C82.7706 32.1208 82.9546 31.2317 82.6883 30.0812C81.7605 26.0746 75.0672 19.3893 68.3642 15.7765C63.2506 13.0204 57.5546 11.602 51.4099 11.5601C45.2991 11.602 39.6095 13.0204 34.4959 15.7781C27.7929 19.3893 21.0996 26.0746 20.1718 30.0796C20.0088 30.7864 20.0185 31.3915 20.1121 31.8901C19.6199 33.1132 19.0535 34.6219 18.7018 35.879C18.3193 37.2441 18.045 38.9013 17.8788 40.0776C17.5981 40.2567 17.335 40.46 17.093 40.6827C15.8053 41.8655 15.4923 43.1935 15.3229 43.9132C15.3196 43.9309 15.3164 43.9471 15.3116 43.9632C14.2805 44.7619 13.6382 45.8544 13.4478 47.1227C11.171 48.8412 10.198 51.2745 10.4836 54.526C10.9451 59.8219 13.209 64.2561 15.4874 68.345C17.3625 71.7094 19.8039 72.5566 21.6224 72.6372C22.5309 73.578 23.7411 74.0814 25.1321 74.0814C25.3628 74.0814 25.5984 74.0669 25.8114 74.0427C25.8582 74.0427 25.976 74.0588 26.0954 74.104C26.8764 74.4042 27.6977 74.5558 28.5352 74.5558C30.3828 74.5558 32.1933 73.7926 33.5003 72.4646C34.5362 71.4109 35.0607 70.212 35.0784 68.8824C35.4044 69.1196 35.7513 69.3422 36.1192 69.5472C36.5307 69.7779 36.9551 70.0974 37.4053 70.4363L37.6683 70.6347C37.941 70.8381 38.2282 71.093 38.5316 71.3641C39.3061 72.0547 40.1839 72.8373 41.357 73.2456C42.5689 73.6684 43.7613 73.883 44.8989 73.883C47.1499 73.883 49.2025 73.0487 50.9387 71.4512C52.6927 73.0197 54.8647 73.8878 57.1576 73.8878C59.6329 73.8878 62.0275 72.8632 63.8993 71.0027C64.3172 70.5879 64.9498 69.9909 65.6065 69.6117C65.9986 69.3858 66.3633 69.1438 66.707 68.8904C66.7264 70.2184 67.2508 71.4125 68.2851 72.4646C69.5922 73.7926 71.401 74.5558 73.2486 74.5558C74.0877 74.5558 74.9091 74.4042 75.6917 74.104C75.8095 74.0588 75.9256 74.0427 75.9482 74.0395C76.1854 74.0685 76.4226 74.0814 76.6534 74.0814C78.0443 74.0814 79.2545 73.578 80.163 72.6372C81.9799 72.5566 84.4214 71.7094 86.298 68.345C88.5764 64.2561 90.8387 59.8219 91.3018 54.5276C91.5858 51.2745 90.6144 48.8412 88.336 47.1227Z" fill="white"/>
<path d="M32.7272 53.4497C33.8116 53.845 34.812 54.3792 35.8657 54.5308C36.466 54.6164 37.155 54.0758 37.8037 53.8176C37.3857 53.3626 37.0485 52.6542 36.537 52.4944C32.0495 51.0777 31.1636 48.3023 34.0149 44.5635C34.2908 44.2037 34.2182 43.4953 34.152 42.9692C33.9261 41.1749 34.1149 39.4386 35.6027 38.2978C37.0775 37.165 38.9219 36.7181 40.4919 37.9944C41.4343 38.7609 41.9361 40.0679 42.6574 41.1168C43.0641 41.7042 43.5159 42.2609 43.9467 42.8337C44.2501 42.2092 44.7874 41.5944 44.8148 40.9587C44.9084 38.7771 42.8091 36.2178 40.663 35.4385C39.903 35.1609 38.725 34.4864 38.7283 33.9991C38.7315 33.1891 39.3527 32.0676 40.053 31.6594C40.7856 31.235 41.9458 31.3496 42.864 31.5206C43.369 31.6158 43.7192 32.379 44.2226 32.7147C44.5744 32.9503 45.3377 33.1842 45.4458 33.0471C45.7395 32.6727 46.0493 31.9627 45.8782 31.6352C45.4103 30.7509 44.6971 29.9957 43.8176 28.842C45.2828 28.5741 46.7544 28.1578 48.2357 28.1159C48.7069 28.1029 49.5718 29.0453 49.625 29.6101C49.8009 31.4996 49.6912 33.4166 49.6912 35.4336C49.141 35.2949 48.7069 35.0399 48.3584 35.1287C47.792 35.2707 47.2837 35.6369 46.7496 35.9096C47.1562 36.3711 47.5806 36.8197 47.9646 37.299C48.5552 38.0348 49.6057 38.7851 49.617 39.5419C49.7364 48.0521 49.7315 56.5656 49.6686 65.0775C49.6541 67.0784 48.4891 68.4741 46.6092 69.2051C44.6067 69.9845 42.801 69.6053 41.1535 68.2563C40.066 67.3656 38.9219 66.5426 37.844 65.6406C36.4272 64.4578 35.3977 63.0491 35.5995 61.0692C35.714 59.9494 35.4526 59.2071 34.3247 58.5939C32.5481 57.6258 32.1608 56.0202 32.7272 53.4497ZM40.8098 48.2022C40.8389 48.3749 40.8679 48.5491 40.8954 48.7218C40.1257 49.1171 39.3124 49.4479 38.6024 49.9304C38.1425 50.2434 37.8327 50.7792 37.4535 51.2148C37.9715 51.5134 38.5524 52.1314 38.9913 52.0426C39.9627 51.8458 41.3552 51.5376 41.6989 50.8421C42.7623 48.6911 44.7568 47.8182 46.4866 46.5305C46.8883 46.232 46.8932 45.3977 47.0788 44.8104C46.4672 44.8394 45.7233 44.6539 45.2618 44.9346C41.9394 46.9484 38.8541 45.7124 37.7972 41.9494C37.6391 41.383 36.9436 40.9651 36.4966 40.4794C36.2352 41.2056 35.6382 41.9978 35.7673 42.6465C36.3207 45.43 38.157 47.2098 40.8098 48.2022ZM47.3757 54.2081C47.4305 52.3944 47.1869 52.0491 46.0218 52.1378C43.6595 52.3202 40.7275 54.5066 40.187 56.7835C39.9578 57.75 39.7578 58.4326 38.7912 58.8311C38.533 58.9376 38.2877 59.5557 38.362 59.859C38.4378 60.1672 38.8848 60.548 39.2188 60.6029C41.8635 61.0434 43.5433 62.3521 43.8531 65.1872C43.8935 65.5567 44.6841 65.8472 45.1263 66.1747C45.407 65.7713 45.9105 65.3792 45.9299 64.9629C46.0396 62.699 44.9778 60.8756 43.1835 59.6799C42.0475 58.9215 42.1524 58.1792 42.4799 57.2143C43.2561 54.9278 45.2715 54.5841 47.3757 54.2081Z" fill="#EA9373"/>
<path d="M57.7111 28.7984C57.1318 29.631 56.509 30.2878 56.1862 31.0688C55.9507 31.6352 56.1136 32.3645 56.0991 33.0196C56.7187 32.826 57.5465 32.8212 57.9241 32.4065C59.5264 30.6508 61.2224 30.4556 62.5084 32.2177C62.9909 32.8776 62.9925 33.8878 62.7021 34.4654C61.132 35.674 59.4022 36.7326 58.0564 38.1542C57.3513 38.8981 57.206 40.2632 57.0382 41.3814C56.9737 41.8139 57.5498 42.3431 57.8338 42.8272C58.213 42.4545 58.6761 42.135 58.9552 41.6977C59.7201 40.5068 60.1622 38.9739 61.1852 38.1155C62.7133 36.831 64.4996 37.0472 66.1907 38.3317C67.7866 39.5467 68.0012 41.0732 67.7737 42.8611C67.7043 43.4049 67.6252 44.1133 67.8963 44.5102C70.6395 48.5249 69.5438 51.4456 64.8353 52.5041C64.6626 52.5429 64.4883 52.5751 64.3254 52.6074C63.9671 54.9471 63.9671 54.9471 69.0274 53.6304C69.8827 55.5652 69.0452 57.6177 67.3299 58.8344C66.8039 59.2071 66.3811 60.1301 66.3972 60.7885C66.4489 63.0556 65.2661 65.1339 63.1684 66.1441C62.5939 66.4216 61.9646 66.7605 61.5935 67.2478C60.1719 69.1099 58.0839 70.0135 55.9958 69.5262C54.0079 69.0615 52.2861 67.0541 51.9537 64.8112C51.7181 63.2218 53.0978 60.9159 54.9163 59.8929C55.2842 59.6847 55.8038 59.6218 56.0329 59.3233C56.317 58.9522 56.6187 58.2728 56.4573 57.9678C56.275 57.6258 55.494 57.2869 55.1342 57.4111C54.0692 57.7807 53.0832 58.3777 51.9037 58.9683C51.9037 53.5497 51.8311 48.2006 51.9844 42.8579C52.007 42.0753 53.0768 41.3024 53.7061 40.5617C54.1628 40.026 54.692 39.5516 55.189 39.0497C54.479 38.8416 53.7771 38.5899 53.0542 38.4446C52.7283 38.3785 52.3603 38.5221 51.9021 38.5866C51.9021 35.8596 51.8295 33.1455 51.9311 30.4362C51.9876 28.9469 52.6992 27.7883 54.4661 28.0497C55.6909 28.232 56.8866 28.6032 57.7111 28.7984ZM59.1779 48.6508L59.3522 48.1909C59.6281 48.1264 59.9202 48.0973 60.1783 47.9908C63.0006 46.8339 64.7756 44.3521 64.4609 41.8752C64.406 41.446 63.93 41.07 63.6492 40.6682C63.2103 40.9958 62.6278 41.2394 62.3713 41.6735C62.0857 42.1608 62.1938 42.8643 61.9566 43.3968C60.656 46.3256 57.9548 46.8597 54.8486 44.9346C54.429 44.6748 53.7335 44.8572 53.1655 44.8346C53.2801 45.3848 53.2317 46.0738 53.5496 46.4547C53.9949 46.9871 54.6646 47.4406 55.3278 47.6568C56.4234 48.0183 57.0382 48.6395 57.5998 49.6754C58.3227 51.0115 59.4829 52.1685 61.2191 52.0733C61.8226 52.0394 62.4035 51.565 62.9941 51.2907C62.5181 50.8308 62.0937 50.2918 61.5515 49.9288C60.8077 49.4318 59.9734 49.0703 59.1779 48.6508ZM56.5896 53.2303C56.4331 53.3367 55.8571 53.7305 55.281 54.1226C55.8377 54.5647 56.3492 55.0891 56.964 55.4248C57.695 55.825 58.7229 55.8669 59.2441 56.4204C59.9524 57.1723 60.5285 58.2212 60.7044 59.2232C60.7851 59.6847 59.8201 60.3802 59.2586 60.8917C57.8789 62.1487 57.0237 63.6672 57.0495 65.5406C57.056 66.0924 57.5385 66.6395 57.8015 67.1897C58.2 66.775 58.8084 66.4265 58.9601 65.9359C59.6684 63.6333 60.6447 61.734 63.4814 61.705C63.8122 61.7018 64.3028 61.3258 64.4206 61.0095C64.5432 60.6787 64.3834 59.8993 64.214 59.8574C62.7537 59.4959 62.915 58.176 62.5294 57.1933C61.7097 55.1101 59.2828 53.2916 56.5896 53.2303Z" fill="#00A1ED"/>
<path d="M50.261 29.1486C48.5957 28.4774 43.6677 30.0539 43.6677 30.0539L42.6931 28.4951L48.6345 27.1316C48.6345 27.1316 50.0658 27.493 50.261 29.1486Z" fill="#BD7463"/>
<path d="M51.3613 29.1486C53.0266 28.4774 57.9546 30.0539 57.9546 30.0539L58.9292 28.4951L52.9879 27.1316C52.9879 27.1316 51.5566 27.493 51.3613 29.1486Z" fill="#006699"/>
<path d="M43.6676 31.6109C43.2788 31.8061 41.457 31.4447 40.3855 32.7114C39.3141 33.9765 39.1882 36.1887 39.1882 36.1887C39.1882 36.1887 36.8501 32.9744 38.2136 31.6109C39.5771 30.2474 43.6676 31.6109 43.6676 31.6109Z" fill="#BD7463"/>
<path d="M57.9497 31.251C58.3386 31.4463 60.1604 31.0848 61.2318 32.3515C62.3033 33.6166 62.4291 35.8289 62.4291 35.8289C62.4291 35.8289 64.7673 32.6145 63.4038 31.251C62.0402 29.8875 57.9497 31.251 57.9497 31.251Z" fill="#006699"/>
<path d="M34.0149 44.5652C34.0149 44.5652 35.0928 38.6593 38.2135 38.6932C40.8421 38.7222 43.7644 41.935 43.7644 41.935C43.7644 41.935 41.4278 36.2873 39.1865 36.1888C36.9468 36.092 34.4457 36.9827 33.9277 38.1381C32.6627 40.9619 34.0149 44.5652 34.0149 44.5652Z" fill="#BD7463"/>
<path d="M68.1819 44.5652C68.1819 44.5652 67.4929 39.6372 63.9832 38.6932C61.2965 37.9719 58.4324 41.935 58.4324 41.935C58.4324 41.935 60.7689 36.2873 63.0102 36.1888C65.2499 36.092 67.751 36.9827 68.269 38.1381C69.5341 40.9619 68.1819 44.5652 68.1819 44.5652Z" fill="#006699"/>
<path d="M38.3734 51.523C38.3734 51.523 38.2734 52.7267 39.979 52.4266C41.6846 52.1249 42.4882 51.2212 43.6919 49.8174C44.8957 48.4119 46.6013 47.9101 46.803 47.4082C47.0031 46.9064 47.0773 44.8103 47.0773 44.8103L38.3734 51.523Z" fill="#BD7463"/>
<path d="M47.3757 54.208C47.3757 54.208 43.6112 56.2315 43.282 57.3465C42.7834 59.0424 45.1861 59.2506 45.3184 61.1546C45.4555 63.141 45.5152 65.4211 45.5152 65.4211C45.5152 65.4211 40.8148 60.3204 41.1843 58.3453C42.0879 53.5303 47.3757 54.208 47.3757 54.208Z" fill="#FAAB8A"/>
<path d="M55.2485 54.208C55.2485 54.208 55.5083 55.7845 57.13 56.2105C58.3903 56.5429 59.8474 57.5369 59.9135 58.5309C60.0265 60.2155 58.0804 60.2801 57.3301 62.0421C56.5475 63.8752 57.4624 65.3565 57.4624 65.3565C57.4624 65.3565 61.8095 60.3204 61.44 58.3453C60.5364 53.5303 55.2485 54.208 55.2485 54.208Z" fill="#00BAF2"/>
<path d="M47.3758 54.2079C45.2716 54.5839 43.2562 54.9276 42.4801 57.2141C42.1525 58.1791 42.0476 58.9213 43.1836 59.6797C44.9779 60.8754 46.0397 62.6988 45.93 64.9627C45.9106 65.379 45.4072 65.7712 45.1264 66.1746C44.6843 65.847 43.8936 65.5565 43.8532 65.187C43.5434 62.3519 41.8637 61.0432 39.2189 60.6027C38.8849 60.5479 38.4379 60.1671 38.3621 59.8589C38.2879 59.5555 38.5331 58.9375 38.7913 58.831C39.7579 58.4324 39.958 57.7498 40.1871 56.7833C40.7277 54.5065 43.6596 52.32 46.022 52.1377C47.187 52.0489 47.4306 52.3942 47.3758 54.2079Z" fill="#1A1818"/>
<path d="M46.7498 35.9097C46.7498 35.9097 47.868 37.6701 48.5118 39.1918C49.5478 41.6413 49.8302 43.6212 49.8302 43.6212L50.1142 37.683L46.7498 35.9097Z" fill="#BD7463"/>
<path d="M33.0566 52.1023C33.0566 52.1023 32.7742 56.1541 34.2813 57.1917C35.7901 58.2276 36.5436 58.0388 36.5436 59.4523C36.5436 60.8659 36.9196 62.7506 37.2972 63.5993C38.1911 65.6099 39.9355 66.0488 40.973 67.0864C41.733 67.8464 42.9513 68.4999 44.3648 69.2535C45.5283 69.8747 46.5319 69.8182 46.5319 69.8182C46.5319 69.8182 43.8937 70.7606 41.5378 70.1006C39.1819 69.4423 36.2612 65.5776 35.5061 64.9177C34.7525 64.2593 34.0925 61.0547 33.5278 59.9235C32.963 58.7924 31.1719 55.2117 31.1719 55.2117L33.0566 52.1023Z" fill="#BD7463"/>
<path d="M69.0645 52.1023C69.0645 52.1023 69.3469 56.1541 67.8397 57.1917C66.331 58.2276 65.5774 58.0388 65.5774 59.4523C65.5774 60.8659 65.2015 62.7506 64.8239 63.5993C63.9299 65.6099 61.4627 66.0488 60.4268 67.0864C59.6667 67.8464 59.1697 68.4999 57.7562 69.2535C56.5928 69.8747 55.5891 69.8182 55.5891 69.8182C55.5891 69.8182 58.2274 70.7606 60.5833 70.1006C62.9392 69.4423 65.8598 65.5776 66.615 64.9177C67.3685 64.2593 68.0285 61.0547 68.5933 59.9235C69.1581 58.7924 70.9492 55.2117 70.9492 55.2117L69.0645 52.1023Z" fill="#006699"/>
<path d="M33.121 45.1799C33.121 45.1799 33.121 47.3841 33.4599 49.164C33.8165 51.0358 37.0211 52.8091 37.0211 52.8091C37.0211 52.8091 32.4433 52.7252 31.764 50.7744C31.0862 48.8251 33.121 45.1799 33.121 45.1799Z" fill="#FAAB8A"/>
<path d="M68.5884 45.1799C68.5884 45.1799 68.5884 47.3841 68.2495 49.164C67.8929 51.0358 64.6882 52.8091 64.6882 52.8091C64.6882 52.8091 69.2661 52.7252 69.9454 50.7744C70.6231 48.8251 68.5884 45.1799 68.5884 45.1799Z" fill="#00BAF2"/>
<path d="M37.7974 41.9495C37.7974 41.9495 39.7337 44.1633 41.0892 44.5861C42.4462 45.0105 45.262 44.933 45.262 44.933C45.262 44.933 43.4628 47.2986 40.8358 46.7064C38.2072 46.1126 37.7974 41.9495 37.7974 41.9495Z" fill="#FAAB8A"/>
<path d="M62.6116 41.9495C62.6116 41.9495 60.6752 44.5232 59.3198 44.9476C57.9627 45.3719 55.147 44.933 55.147 44.933C55.147 44.933 56.9462 47.2986 59.5731 46.7064C62.2017 46.1126 62.6116 41.9495 62.6116 41.9495Z" fill="#00BAF2"/>
<path d="M40.8099 48.2022C38.1555 47.2098 36.3192 45.43 35.7673 42.6465C35.6383 41.9978 36.2337 41.2055 36.4967 40.4778C36.9437 40.9651 37.6375 41.383 37.7973 41.9494C38.8542 45.7124 41.9394 46.9484 45.2619 44.9346C45.7234 44.6538 46.4657 44.8394 47.0788 44.8104C46.8917 45.3977 46.8884 46.232 46.4866 46.5305C44.7568 47.8181 42.7624 48.6911 41.699 50.8421C41.3553 51.5375 39.9628 51.8457 38.9897 52.041C38.5525 52.1314 37.9699 51.5133 37.4536 51.2148C37.8312 50.7791 38.141 50.2434 38.6025 49.9304C39.3125 49.4463 40.1257 49.1171 40.8954 48.7218C40.8664 48.5475 40.839 48.3748 40.8099 48.2022Z" fill="#1A1818"/>
<path d="M40.6631 35.4385C40.6631 35.4385 43.4966 35.2787 44.4712 37.0021C45.9864 39.6823 44.8149 40.9587 44.8149 40.9587L40.6631 35.4385Z" fill="#FAAB8A"/>
<path d="M62.3647 35.3545C62.3647 35.3545 58.7341 36.0274 57.6723 37.7007C55.2325 41.5476 57.8353 42.4673 57.8353 42.4673L62.3647 35.3545Z" fill="#00BAF2"/>
<path d="M56.5897 53.2302C59.2828 53.2915 61.7097 55.1101 62.5294 57.1933C62.9151 58.176 62.7537 59.4959 64.214 59.8574C64.3834 59.8993 64.5432 60.6787 64.4206 61.0095C64.3028 61.3258 63.8122 61.7017 63.4814 61.705C60.6447 61.734 59.6684 63.6332 58.9601 65.9359C58.8084 66.4264 58.2 66.775 57.8015 67.1897C57.5385 66.6394 57.056 66.0924 57.0495 65.5406C57.0237 63.6671 57.8789 62.1487 59.2586 60.8917C59.8201 60.3802 60.7851 59.6847 60.7044 59.2232C60.5285 58.2212 59.9524 57.1723 59.2441 56.4204C58.7229 55.8669 57.695 55.8249 56.964 55.4248C56.3492 55.0891 55.8377 54.5647 55.281 54.1226C55.8571 53.7305 56.4331 53.3367 56.5897 53.2302Z" fill="#1A1818"/>
<path d="M53.3333 45.5156C53.3333 45.5156 53.5737 46.7952 54.1336 47.4358C54.6935 48.0764 56.1345 48.3169 56.6137 49.277C57.0946 50.2371 57.6545 51.8378 58.7744 52.1573C59.8942 52.4768 61.219 52.0734 61.219 52.0734L57.8143 48.1571L53.3333 45.5156Z" fill="#006699"/>
<path d="M59.1793 48.6508C59.9749 49.0703 60.8091 49.4334 61.553 49.9304C62.0952 50.2919 62.5195 50.8308 62.9956 51.2923C62.405 51.565 61.8241 52.041 61.2206 52.0733C59.4843 52.1685 58.3241 51.0115 57.5996 49.6754C57.0397 48.6411 56.4233 48.0183 55.3276 47.6584C54.666 47.4406 53.9948 46.9872 53.551 46.4547C53.2315 46.0738 53.2816 45.3864 53.167 44.8346C53.735 44.8572 54.4305 44.6748 54.85 44.9362C57.9562 46.8597 60.6574 46.3272 61.958 43.3985C62.1936 42.8644 62.0855 42.1608 62.3727 41.6751C62.6293 41.2394 63.2118 40.9958 63.6491 40.6682C63.9315 41.07 64.4075 41.446 64.4607 41.8768C64.7754 44.3521 63.002 46.8355 60.1798 47.9908C59.92 48.0973 59.6295 48.1264 59.3536 48.1909L59.1793 48.6508Z" fill="#1A1818"/>
<path d="M55.1889 39.0498C55.1889 39.0498 54.2917 40.9087 53.4994 41.964C52.7088 43.0177 51.5647 44.4248 51.5647 44.4248L51.6534 41.3476L55.1889 39.0498Z" fill="#006699"/>
<path d="M51.3032 58.2357C51.634 58.2357 55.134 57.4111 55.134 57.4111L51.3032 60.882V58.2357Z" fill="#00BAF2"/>
<path d="M50.9322 68.366C48.6296 71.5948 45.5879 72.5533 42.0315 71.3141C40.8583 70.9058 39.9402 69.7795 38.8946 68.9969C38.3169 68.5644 37.7441 68.111 37.1164 67.7609C34.7992 66.47 33.6551 64.4884 33.3534 61.8841C33.2711 61.1837 32.858 60.4108 32.3675 59.888C30.2004 57.5741 29.3774 55.0826 30.8894 52.0797C31.0604 51.7392 30.9701 51.1454 30.791 50.7678C29.7663 48.5975 29.9858 46.5708 31.1589 44.5021C31.6107 43.7034 31.8495 42.6868 31.8769 41.7622C31.9689 38.535 33.4647 36.384 36.5839 35.3287C35.9997 32.7195 37.0018 30.8541 39.2076 29.3744C41.8443 27.6059 44.3938 25.5227 47.763 25.889C49.8414 26.1149 51.7939 26.2827 53.9077 25.939C55.3971 25.697 57.1608 26.2876 58.6179 26.9249C60.3816 27.6979 62.0291 28.8097 63.5733 29.9795C64.2962 30.5282 65.1724 31.6157 65.0853 32.3548C64.8061 34.7236 66.1341 35.695 67.822 36.839C69.4227 37.9234 70.1149 39.7032 70.1004 41.7622C70.0939 42.7998 70.1085 43.3403 70.3683 44.3795C70.5038 44.9265 71.6463 46.6966 71.6672 47.8665C71.6947 49.5447 70.9153 50.6694 70.9831 51.6263C71.046 52.5041 72.0142 53.7337 71.5301 56.1379C71.3203 57.1787 71.1444 58.1485 70.4183 58.8295C69.0628 60.0962 68.5723 61.5759 68.1963 63.2508C67.73 65.3275 66.4181 66.7798 64.5834 67.8399C63.804 68.2917 63.1005 68.913 62.4583 69.552C59.0132 72.9729 53.8367 72.5469 50.9322 68.366ZM32.7257 53.4497C32.1609 56.0202 32.5482 57.6257 34.3248 58.5939C35.4527 59.2087 35.7141 59.9509 35.5996 61.0692C35.3979 63.0507 36.4273 64.4594 37.8425 65.6422C38.922 66.5426 40.0661 67.3671 41.1536 68.2579C42.8011 69.6052 44.6052 69.9844 46.6077 69.2067C48.4892 68.4757 49.6542 67.0783 49.6687 65.079C49.73 56.5656 49.7365 48.0521 49.6171 39.5419C49.6058 38.7851 48.5553 38.0347 47.9647 37.2989C47.5807 36.8197 47.1563 36.3727 46.7497 35.9112C47.2822 35.6385 47.7921 35.2706 48.3568 35.1286C48.7054 35.0398 49.1411 35.2948 49.6913 35.4352C49.6913 33.4182 49.801 31.5012 49.6252 29.6116C49.5719 29.0469 48.707 28.1029 48.2358 28.1158C46.7529 28.1594 45.2813 28.5741 43.8161 28.8435C44.6972 29.9973 45.4104 30.7508 45.8767 31.6367C46.0494 31.9627 45.7396 32.6743 45.4459 33.0486C45.3378 33.1842 44.5729 32.9502 44.2211 32.7162C43.7177 32.379 43.3691 31.6157 42.8641 31.5205C41.9443 31.3495 40.7841 31.2349 40.0532 31.6609C39.3528 32.0676 38.7316 33.189 38.7268 33.9991C38.7251 34.488 39.9015 35.1625 40.6631 35.4384C42.8092 36.2194 44.9085 38.777 44.8149 40.9602C44.7875 41.596 44.2502 42.2092 43.9452 42.8336C43.5144 42.2624 43.0642 41.7057 42.6575 41.1167C41.9346 40.0679 41.4344 38.7625 40.4904 37.9944C38.9204 36.718 37.0776 37.1666 35.6028 38.2977C34.1134 39.4402 33.9246 41.1748 34.1521 42.9692C34.2183 43.4968 34.2909 44.2036 34.015 44.5651C31.1621 48.3022 32.0496 51.0792 36.5371 52.4944C37.047 52.6558 37.3858 53.3641 37.8038 53.8176C37.1551 54.0757 36.4661 54.6163 35.8658 54.5308C34.8105 54.3807 33.8101 53.8466 32.7257 53.4497ZM57.7126 28.7984C56.8881 28.6031 55.6908 28.232 54.466 28.0496C52.6991 27.7882 51.9875 28.9468 51.9326 30.4362C51.831 33.1455 51.9036 35.8596 51.9036 38.5866C52.3602 38.522 52.7298 38.3784 53.0557 38.4446C53.7786 38.5898 54.4789 38.8415 55.1889 39.0497C54.6919 39.5515 54.1627 40.0259 53.706 40.5617C53.0767 41.3023 52.0069 42.0752 51.9843 42.8578C51.8326 48.2005 51.9052 53.5497 51.9052 58.9682C53.0848 58.3777 54.0707 57.7806 55.1357 57.4111C55.4955 57.2868 56.2765 57.6257 56.4588 57.9694C56.6202 58.2728 56.3168 58.9521 56.0328 59.3232C55.8053 59.6218 55.2841 59.6847 54.9162 59.8928C53.0993 60.9159 51.718 63.2217 51.9536 64.8112C52.286 67.0541 54.0094 69.0631 55.9973 69.5262C58.0838 70.0135 60.1734 69.1115 61.5934 67.2477C61.9661 66.7604 62.5938 66.4216 63.1683 66.1456C65.2676 65.1339 66.4488 63.0555 66.3971 60.79C66.3826 60.13 66.8054 59.2071 67.3314 58.8343C69.0451 57.6176 69.8826 55.5651 69.0289 53.6304C63.9686 54.9471 63.9686 54.9471 64.3269 52.6073C64.4898 52.5751 64.6641 52.5428 64.8368 52.5041C69.5453 51.4455 70.6393 48.5249 67.8962 44.5102C67.6251 44.1132 67.7058 43.4049 67.7752 42.8611C68.0011 41.0732 67.7881 39.5467 66.1922 38.3316C64.5011 37.0472 62.7132 36.8326 61.1851 38.1154C60.1637 38.9739 59.7216 40.5068 58.9567 41.6976C58.676 42.1349 58.2145 42.4544 57.8353 42.8272C57.5513 42.3431 56.9752 41.8138 57.0397 41.3814C57.2059 40.2631 57.3528 38.898 58.0579 38.1541C59.4037 36.7325 61.1335 35.674 62.7036 34.4654C62.994 33.8877 62.9924 32.8776 62.5099 32.2176C61.2223 30.4555 59.5263 30.6508 57.9256 32.4064C57.5464 32.8211 56.7202 32.826 56.099 33.0212C56.1135 32.3645 55.9522 31.6351 56.1861 31.0687C56.5105 30.2877 57.1333 29.631 57.7126 28.7984Z" fill="#1A1818"/>
<path d="M21.9531 41.9816C24.4494 42.0187 24.7786 44.999 25.061 46.8402C26.134 53.8562 28.3108 60.5334 31.5493 66.8491C32.2061 68.1303 32.532 69.2421 31.3976 70.3958C30.2617 71.5528 28.6029 71.9078 27.1506 71.3511C26.6375 71.1542 26.0275 71.0477 25.4886 71.1123C24.2574 71.2575 23.5442 70.6943 23.123 69.5309C20.6203 70.1796 19.1212 68.8064 18.0643 66.9088C15.8569 62.949 13.8253 58.8956 13.4203 54.2693C13.1815 51.531 14.0803 49.9028 16.4442 48.7362C16.1473 47.5147 16.4361 46.5126 17.7335 45.9317C17.9594 45.8301 17.9142 45.6203 18.1014 44.9603C18.287 44.302 18.3257 43.5549 19.0873 42.8545C20.2282 41.8073 21.9531 41.9816 21.9531 41.9816Z" fill="#6D6F72"/>
<path d="M82.6964 42.8545C83.458 43.5549 83.4967 44.302 83.6839 44.9619C83.8695 45.6203 83.8259 45.8317 84.0502 45.9317C85.3491 46.5126 85.6364 47.5147 85.3411 48.7378C87.705 49.9045 88.6022 51.531 88.3634 54.2709C87.96 58.8956 85.9284 62.949 83.721 66.9088C82.6641 68.8064 81.1634 70.1796 78.6607 69.5325C78.2395 70.6943 77.5279 71.2575 76.2967 71.1123C75.7562 71.0477 75.1478 71.1542 74.6347 71.3511C73.1824 71.9078 71.5236 71.5528 70.386 70.3974C69.2517 69.2421 69.5792 68.1303 70.236 66.8491C73.4729 60.5334 75.6513 53.8562 76.7243 46.8402C77.0051 44.999 77.3359 42.0187 79.8306 41.9816C79.8306 41.9816 81.5571 41.8073 82.6964 42.8545Z" fill="#6D6F72"/>
<path d="M66.9651 18.3727C60.751 15.0228 54.7807 14.5306 51.4308 14.5081C48.0793 14.5306 42.1089 15.0228 35.8948 18.3727C28.143 22.5503 22.0241 30.0924 23.1198 31.6205C23.9072 32.721 26.9844 32.4886 29.6646 30.2021C35.1864 25.492 36.821 23.2797 42.125 21.842C46.6851 20.6059 51.4308 20.5801 51.4308 20.5801C51.4308 20.5801 56.1748 20.6059 60.7349 21.842C66.0389 23.2797 67.6735 25.492 73.1953 30.2021C75.8755 32.4886 78.9527 32.721 79.7402 31.6205C80.8358 30.0924 74.7169 22.5503 66.9651 18.3727Z" fill="#6D6F72"/>
<path d="M23.9121 31.8369C23.9121 31.8369 29.1193 23.935 37.0292 19.9751C48.7038 14.1306 60.6285 16.3558 60.6285 16.3558C60.6285 16.3558 60.5252 13.9886 49.3573 14.5953C41.2553 15.0358 36.4128 16.9722 32.2739 20.2301C28.135 23.4896 23.2925 29.1244 23.2925 29.1244L23.9121 31.8369Z" fill="#464749"/>
<path d="M22.058 42.7741C22.058 42.7741 20.4734 43.1258 20.2088 44.712C19.9442 46.2966 20.1765 47.3632 19.473 47.6262C18.7678 47.8909 18.3112 47.8586 18.4516 48.4621C18.6097 49.1463 19.0083 49.9014 19.0083 49.9014C19.0083 49.9014 15.894 49.995 15.2776 52.7253C14.6612 55.4539 16.3345 58.9764 17.6544 62.4118C18.6049 64.8791 19.7118 66.7541 20.6784 67.8643C21.4335 68.7308 23.2779 68.7001 23.2779 68.7001C23.2779 68.7001 21.6546 70.0007 19.4165 68.9276C18.5726 68.5226 14.1335 57.7436 13.8689 56.2478C13.6042 54.7504 13.956 50.5227 13.956 50.5227L16.4442 48.738L16.3345 46.913L17.7335 45.9335L19.0873 42.8548L21.9531 41.9834L22.058 42.7741Z" fill="#464749"/>
<path d="M26.9926 70.6959C26.9926 70.6959 30.0552 70.3248 29.6389 68.8854C29.221 67.4461 25.9244 59.1375 25.0901 55.4714C24.2543 51.8036 23.7896 44.4697 23.7896 44.4697C23.7896 44.4697 26.807 57.0963 27.9204 59.6023C29.0354 62.1082 31.8657 66.7974 31.6802 68.7467C31.4946 70.6959 31.2622 71.0203 30.102 71.2526C28.9418 71.485 26.9926 70.6959 26.9926 70.6959Z" fill="#96999C"/>
<path d="M39.2996 21.9663C39.2996 21.9663 53.806 14.0079 67.0539 22.6585C75.1413 27.9399 76.9615 31.8771 76.9615 31.8771C76.9615 31.8771 70.9314 29.2921 69.9826 27.3106C69.0354 25.3291 63.0311 23.0748 60.1621 21.7113C55.8214 19.6491 39.2996 21.9663 39.2996 21.9663Z" fill="#96999C"/>
<path d="M82.0445 43.1627C82.0445 43.1627 81.0973 42.4737 79.8048 44.1971C78.5123 45.9188 78.0815 54.1902 76.0144 59.1005C73.9457 64.0124 70.0698 69.7843 70.0698 69.7843C70.0698 69.7843 74.2911 58.7568 74.8074 56.1718C75.3254 53.5867 76.847 42.9659 78.3396 42.4737C79.8322 41.9816 82.0445 43.1627 82.0445 43.1627Z" fill="#96999C"/>
<path d="M85.1459 49.3672C85.1459 49.3672 86.1657 50.1837 86.6111 52.4686C87.213 55.57 84.2617 62.089 82.3898 65.4776C80.5794 68.7516 77.6506 67.6318 77.6506 67.6318C77.6506 67.6318 77.3231 69.6311 75.5836 69.5439C73.8602 69.4568 72.2224 71.5093 72.2224 71.5093C72.2224 71.5093 79.0287 70.6476 80.752 69.5262C82.4754 68.4063 86.4078 63.7607 87.3856 59.0166C88.3651 54.271 89.1945 52.383 88.0746 51.0034C86.9548 49.6254 85.1459 49.3672 85.1459 49.3672Z" fill="#464749"/>
<path d="M86.3351 48.2474C86.4464 46.9162 85.8752 45.8673 84.6827 45.2364C84.6521 45.0993 84.6133 44.9282 84.5536 44.7152C84.523 44.6055 84.4955 44.4925 84.4697 44.378C84.3277 43.7745 84.1325 42.9467 83.3079 42.1899C83.0546 41.9575 82.7803 41.772 82.5011 41.6251C82.4705 41.3444 82.1445 38.4721 81.5733 36.4309C81.2183 35.1626 80.6051 33.5651 80.1678 32.484C80.2824 32.3823 80.3873 32.271 80.4744 32.1467C80.7713 31.732 80.8455 31.1931 80.6955 30.5428C79.9855 27.4817 74.0215 21.1515 67.3944 17.5789C62.5777 14.9826 57.2092 13.6465 51.4244 13.6062C45.6524 13.6465 40.2839 14.9826 35.4673 17.5789C28.8401 21.1515 22.8762 27.4817 22.1662 30.5428C22.0355 31.1108 22.0758 31.5932 22.284 31.9821C21.858 33.0132 21.0899 34.9447 20.6736 36.4309C20.1717 38.2172 19.8619 40.6408 19.7716 41.4073C19.3278 41.5751 18.8776 41.822 18.4774 42.1899C17.6545 42.9467 17.4592 43.7745 17.3173 44.378C17.2898 44.4925 17.264 44.6055 17.2333 44.7152C17.172 44.9282 17.1349 45.0993 17.1043 45.2364C15.9118 45.8673 15.3389 46.9162 15.4503 48.2474C13.1783 49.5738 12.2715 51.4827 12.5232 54.3485C12.9492 59.2426 15.105 63.4542 17.2753 67.3495C18.6211 69.7651 20.4089 70.8397 22.6019 70.5525C23.3925 71.9338 24.6318 72.1226 25.5951 72.008C25.9517 71.9661 26.4132 72.0354 26.8279 72.1936C27.383 72.4066 27.9607 72.5098 28.5368 72.5098C29.8228 72.5098 31.0944 71.9935 32.0415 71.0302C33.7939 69.2487 32.8209 67.3495 32.353 66.4378C29.1548 60.1995 27.0006 53.5595 25.9534 46.7048L25.9146 46.4547C25.6597 44.7507 25.1982 41.7139 22.7116 41.1701C22.8423 40.1858 23.0989 38.477 23.4539 37.2103C23.8169 35.9113 24.5172 34.146 24.9239 33.1585C26.3439 33.131 28.3238 32.5324 30.2504 30.8881C31.3074 29.9893 32.2287 29.1728 33.042 28.4515C36.5226 25.3711 38.2701 23.8237 42.3623 22.7135C46.7481 21.5242 51.3889 21.4839 51.426 21.4839C51.4712 21.4839 56.1119 21.5242 60.4994 22.7135C64.5915 23.8237 66.3391 25.3711 69.8197 28.4531C70.6329 29.1728 71.5559 29.9893 72.6096 30.8881C74.2652 32.3 75.9595 32.9406 77.3036 33.11C77.707 34.0879 78.4235 35.8887 78.793 37.2103C79.1399 38.4463 79.3933 40.1083 79.5256 41.1039C76.6437 41.3605 76.1402 44.6523 75.8707 46.4547L75.8336 46.7048C74.7848 53.5595 72.6322 60.1995 69.434 66.4378C68.966 67.3495 67.993 69.2487 69.7438 71.0302C70.6926 71.9935 71.9626 72.5098 73.2502 72.5098C73.8247 72.5098 74.404 72.4066 74.959 72.1936C75.3737 72.0354 75.832 71.9661 76.1918 72.008C77.1536 72.1226 78.3944 71.9338 79.1851 70.5525C81.378 70.8397 83.1643 69.7651 84.5101 67.3495C86.682 63.4542 88.8362 59.2426 89.2638 54.3485C89.5139 51.4827 88.607 49.5738 86.3351 48.2474ZM24.13 46.7209L24.1687 46.9775C25.2466 54.0258 27.4589 60.8498 30.7458 67.2607C31.4106 68.5565 31.4122 69.0954 30.7555 69.7651C29.8857 70.6477 28.5981 70.9398 27.4734 70.509C26.928 70.3008 26.3551 70.1911 25.8178 70.1911C25.6694 70.1911 25.5241 70.1991 25.3821 70.2169C24.7286 70.2927 24.3107 70.1588 23.9718 69.2245L23.6927 68.4516L22.8972 68.6581C21.1641 69.1051 19.9571 68.4516 18.8518 66.4701C16.7767 62.7458 14.7161 58.7295 14.3191 54.192C14.1126 51.8151 14.7968 50.5565 16.8445 49.5464L17.4915 49.2269L17.3221 48.525C17.0639 47.4616 17.448 47.0485 18.1015 46.7564C18.6727 46.5015 18.7856 45.9884 18.8615 45.6495C18.8857 45.5349 18.918 45.3897 18.9696 45.2074C19.0083 45.0718 19.0406 44.9314 19.0745 44.7911C19.1907 44.2941 19.2826 43.9003 19.699 43.5195C20.5074 42.7756 21.8193 42.8773 21.866 42.8805L21.9403 42.8838C23.4377 42.9063 23.8185 44.6345 24.13 46.7209ZM71.017 27.1009C67.4412 23.9366 65.4709 22.1923 60.9722 20.9724C56.3508 19.7186 51.6341 19.6799 51.426 19.6783C51.2275 19.6799 46.5109 19.7186 41.8895 20.9724C37.3891 22.1923 35.4205 23.9366 31.8463 27.1009C31.0379 27.8158 30.123 28.6258 29.0806 29.5149C27.3927 30.9559 25.5548 31.469 24.4866 31.3367C24.1574 31.2963 23.9734 31.2044 23.8928 31.135C23.8266 29.8312 28.6723 23.2912 36.3241 19.1667C40.8777 16.7124 45.9623 15.449 51.4244 15.4118C56.8994 15.449 61.9839 16.7124 66.5375 19.1667C74.1877 23.2912 79.035 29.8312 78.9689 31.135C78.8882 31.2044 78.7043 31.2963 78.3751 31.3367C77.3036 31.4674 75.469 30.9559 73.7811 29.5149C72.7387 28.6258 71.8238 27.8158 71.017 27.1009ZM87.4662 54.192C87.0693 58.7295 85.0103 62.7458 82.9352 66.4701C81.8298 68.4516 80.6196 69.1067 78.8898 68.6581L78.0943 68.4516L77.8151 69.2245C77.4763 70.1588 77.06 70.2927 76.4032 70.2169C75.7497 70.1378 75.0075 70.2427 74.3136 70.509C73.1873 70.9398 71.8996 70.6477 71.0315 69.7651C70.3731 69.0954 70.3747 68.5565 71.0396 67.2607C74.3265 60.8498 76.5404 54.0258 77.6183 46.9775L77.6554 46.7209C77.9684 44.6345 78.3493 42.9063 79.8467 42.8838L79.9193 42.8805C79.9225 42.8789 79.9968 42.8741 80.1194 42.8741C80.5244 42.8741 81.4587 42.9418 82.088 43.5195C82.5027 43.9003 82.5947 44.2941 82.7125 44.7911C82.7448 44.9314 82.7786 45.0718 82.8174 45.2074C82.869 45.3897 82.8997 45.5349 82.9255 45.6495C82.9997 45.9884 83.1127 46.5015 83.6839 46.7564C84.339 47.0485 84.7231 47.4616 84.4649 48.525L84.2938 49.2269L84.9425 49.5464C86.9902 50.5565 87.6744 51.8151 87.4662 54.192Z" fill="#1A1818"/>
</g>
<defs>
<filter id="filter0_dd_1_408" x="0" y="0.608398" width="357.005" height="101.784" filterUnits="userSpaceOnUse" color-interpolation-filters="sRGB">
<feFlood flood-opacity="0" result="BackgroundImageFix"/>
<feColorMatrix in="SourceAlpha" type="matrix" values="0 0 0 0 0 0 0 0 0 0 0 0 0 0 0 0 0 0 127 0" result="hardAlpha"/>
<feOffset dy="4"/>
<feGaussianBlur stdDeviation="2"/>
<feComposite in2="hardAlpha" operator="out"/>
<feColorMatrix type="matrix" values="0 0 0 0 0 0 0 0 0 0 0 0 0 0 0 0 0 0 0.25 0"/>
<feBlend mode="normal" in2="BackgroundImageFix" result="effect1_dropShadow_1_408"/>
<feColorMatrix in="SourceAlpha" type="matrix" values="0 0 0 0 0 0 0 0 0 0 0 0 0 0 0 0 0 0 127 0" result="hardAlpha"/>
<feOffset dy="4"/>
<feGaussianBlur stdDeviation="2"/>
<feComposite in2="hardAlpha" operator="out"/>
<feColorMatrix type="matrix" values="0 0 0 0 0 0 0 0 0 0 0 0 0 0 0 0 0 0 0.25 0"/>
<feBlend mode="normal" in2="effect1_dropShadow_1_408" result="effect2_dropShadow_1_408"/>
<feBlend mode="normal" in="SourceGraphic" in2="effect2_dropShadow_1_408" result="shape"/>
</filter>
</defs>
</svg>
