<svg width="260" height="93" viewBox="0 0 260 93" fill="none" xmlns="http://www.w3.org/2000/svg">
<path d="M93.9332 35.0033C95.9654 27.6834 103.777 24.1958 109.876 21.5502C114.811 19.2006 120.632 17.7236 122.928 12.1839C124.798 7.6656 122.445 1.42163 115.461 1.01538C111.962 0.812131 106.582 0.470968 102.516 1.7974C95.4647 4.10005 87.7566 7.38074 80.5891 10.9135C74.67 13.8313 71.3658 15.5932 65.8713 13.1963C57.4538 9.52353 46.6991 4.22892 40.9959 4.68604C3.73997 7.67102 0.571887 41.6662 0.88929 47.774C1.01635 50.2435 0.0473595 87.9261 42.9775 91.9578C42.8505 91.9397 51.5694 94.1027 66.2233 85.3094C68.535 83.9249 73.6194 80.187 78.5623 79.5827C84.1691 78.8986 90.3513 80.8402 95.882 81.3991C95.882 81.3991 104.138 81.7839 108.096 80.0365C116.08 76.5107 116.17 70.2543 115.481 68.4287C114.791 66.4964 114.702 64.6237 107.74 65.1989C104.367 65.4783 99.3151 58.0804 98.1031 57.0952C100.157 61.0145 106.599 70.5862 99.0519 74.9828C94.5483 77.6104 83.6376 75.7778 83.6376 75.7778C83.6376 75.7778 78.829 73.9087 73.5923 73.6401C71.0846 73.5131 60.7962 74.8596 54.1096 76.1987C18.0494 79.7007 17.9296 54.2463 17.9296 54.2463C17.9296 54.2463 34.3674 54.1737 42.0847 54.1376L42.0122 39.5905C34.1587 39.6267 25.5036 39.6631 17.6465 39.6992C18.7661 29.8029 31.5968 21.7682 41.4985 21.5559C50.0776 21.3743 54.5905 21.935 63.3148 21.0241C65.933 20.723 76.0292 17.7326 82.2311 13.8876C85.7969 11.6756 89.738 9.12632 93.514 7.65656C96.7077 6.1868 100.629 4.71523 104.272 6.29914C111.086 9.26242 104.82 19.6613 102.594 21.2891C94.1837 27.4368 93.9115 34.2285 93.9151 34.8109" fill="#040404"/>
<path d="M259.23 38.616L234.961 38.725V38.7794H234.907L235.015 53.2955H238.588V47.91L255.712 47.8013V53.1886H259.341L259.287 47.8013V45.9304L259.232 38.6723V38.6178L259.23 38.616ZM255.658 42.245V44.2303L238.534 44.2845V42.3558L255.658 42.2469V42.245ZM232.125 38.7867L207.857 38.8412V42.4703L223.564 42.4158L207.857 49.8444L207.912 49.9534V53.4698L232.181 53.3608V49.7318L216.416 49.7863L232.01 42.3577H232.119V42.3031V38.7867H232.125ZM205.021 38.8954L201.448 38.9499L201.503 49.1566L184.321 39.0062L184.267 38.9517L184.212 39.0062H180.697L180.751 53.5225H184.381L184.326 43.2595L201.508 53.4099V53.4644L205.079 53.4099L205.025 38.8936L205.021 38.8954ZM177.917 39.0044L157.219 39.1131H153.646H153.591L153.646 53.6295H153.7V53.6839L177.97 53.575V49.9461L157.271 50.0549V48.2403L177.913 48.1316V44.5603L157.271 44.6693V42.6843L177.913 42.5754V39.0026L177.917 39.0044ZM150.811 39.1131L130.057 39.2221H126.542H126.488L126.542 53.7384H126.596V53.7929L150.81 53.6839V53.6295H150.864L150.81 48.2421V44.6693L135.273 44.7238V48.3529L147.293 48.2439V50.1148L130.169 50.1693L130.115 42.7967L150.811 42.688V39.117V39.1131ZM123.65 39.2221L102.953 39.3311H99.4382H99.3839L99.4382 53.8472H103.067L103.013 48.4598L114.751 48.4053L119.458 53.7929L124.221 53.7384L119.514 48.409H123.71H123.764L123.71 39.2221H123.655H123.65ZM120.135 42.7949V44.7801L103.009 44.8889V42.9057L120.135 42.7967V42.7949ZM96.5459 39.3365L75.8494 39.4453H72.2766V39.4997V43.0162H72.3309V45.0015V48.6305V50.4451V54.0161L96.6004 53.9071V50.3343L75.9039 50.4433V48.6287L96.6004 48.5197V44.8907L75.9039 44.9997V43.0144L96.5441 42.9602V39.3311L96.5459 39.3365ZM65.8676 39.4997L57.3065 45.0578L48.7439 39.6141L48.7075 39.5596L45.1892 39.6141L45.2437 54.1302L48.8165 54.076L48.7801 43.245L57.3448 48.7447L65.9077 43.1306L65.9619 54.0179H69.591L69.5367 39.5015H65.9077L65.8676 39.4997Z" fill="#AA0000"/>
<path d="M238.149 58.534C240.121 58.534 241.718 57.6177 241.715 56.5054C241.715 55.3931 240.105 54.4987 238.131 54.5077C236.155 54.5077 234.558 55.424 234.562 56.5364C234.562 57.6487 236.173 58.5431 238.149 58.534ZM256.28 58.4615C258.256 58.4615 259.853 57.5452 259.847 56.4328C259.847 55.3205 258.238 54.4259 256.262 54.4352C254.289 54.4352 252.693 55.3515 252.696 56.4638C252.696 57.5761 254.304 58.4705 256.28 58.4615ZM247.18 58.4979C249.156 58.4979 250.753 57.5816 250.747 56.4692C250.747 55.3569 249.138 54.4623 247.164 54.4713C245.19 54.4713 243.593 55.3876 243.596 56.5C243.596 57.6123 245.208 58.5069 247.18 58.4979ZM238.058 37.5909C240.031 37.5909 241.628 36.6725 241.624 35.5602C241.624 34.4499 240.013 33.5553 238.04 33.5625C236.064 33.5625 234.467 34.4806 234.471 35.593C234.471 36.7035 236.082 37.5981 238.058 37.5909ZM256.189 37.5181C258.164 37.5181 259.76 36.5999 259.755 35.4894C259.755 34.3773 258.145 33.4827 256.171 33.4918C254.195 33.4918 252.598 34.4081 252.604 35.5204C252.604 36.6327 254.213 37.5274 256.189 37.5181ZM247.089 37.5545C249.065 37.5545 250.662 36.6364 250.657 35.524C250.657 34.4135 249.047 33.5189 247.071 33.5261C245.099 33.5261 243.502 34.4445 243.506 35.5566C243.506 36.6671 245.113 37.5617 247.089 37.5545Z" fill="black"/>
</svg>
