<svg width="178" height="178" viewBox="0 0 178 178" fill="none" xmlns="http://www.w3.org/2000/svg">
<path d="M50.6055 137.327C50.6055 150.779 39.7011 161.683 26.2497 161.683C12.7989 161.683 1.89453 150.779 1.89453 137.327C1.89453 123.876 12.7989 112.972 26.2497 112.972C39.7011 112.972 50.6055 123.876 50.6055 137.327Z" fill="white"/>
<path d="M175.355 136.664C175.355 150.115 164.45 161.019 150.999 161.019C137.548 161.019 126.644 150.115 126.644 136.664C126.644 123.212 137.548 112.308 150.999 112.308C164.45 112.308 175.355 123.212 175.355 136.664Z" fill="white"/>
<path d="M118.287 145.957C118.287 162.097 105.203 175.18 89.0633 175.18C72.9235 175.18 59.8391 162.097 59.8391 145.957C59.8391 129.817 72.9235 116.733 89.0633 116.733C105.203 116.733 118.287 129.817 118.287 145.957Z" fill="white"/>
<path d="M87.0803 54.1289L88.2984 12.4484C66.4253 12.771 48.7905 30.5916 48.7905 52.5418C48.7905 74.6931 66.7479 92.6504 88.8992 92.6504C110.32 92.6504 127.817 75.8561 128.947 54.7164L87.0803 54.1289Z" fill="white"/>
<path d="M88.6484 12.6024C89.5193 12.6024 90.2262 13.3081 90.2269 14.179V14.1816V52.5418H127.064C127.935 52.5412 128.642 53.2468 128.642 54.1184V54.1204C128.642 75.3025 109.284 92.6578 88.6497 92.6578C66.5435 92.5429 48.7169 74.5298 48.8311 52.4243C48.9453 30.4808 66.7055 12.7199 88.6497 12.6058L88.6484 12.6024ZM88.6955 95.9636C92.1718 95.9655 95.2566 98.19 96.3572 101.487C118.92 97.9218 136.059 79.2927 137.734 56.5114C137.813 55.6445 138.58 55.0052 139.447 55.0835C140.291 55.1605 140.923 55.8901 140.879 56.7364C140.067 68.0451 135.587 78.7795 128.12 87.3108H150.748C151.619 87.3128 152.324 88.0184 152.327 88.8893V104.354C152.304 105.224 151.58 105.911 150.71 105.889C149.871 105.867 149.197 105.192 149.175 104.354V90.4745H125.129C117.365 98.0167 107.451 102.961 96.7554 104.622C96.4342 109.069 92.5688 112.414 88.122 112.092C84.1218 111.803 80.9409 108.622 80.6521 104.622C69.9528 102.964 60.0342 98.02 52.2696 90.4745H28.2318V104.353C28.2092 105.224 27.485 105.911 26.6148 105.887C25.7764 105.866 25.1019 105.191 25.08 104.353V88.8893C25.0833 88.0191 25.7883 87.3141 26.6586 87.3108H49.2871C41.8173 78.7809 37.3373 68.0451 36.5287 56.7358C36.4829 55.8662 37.1507 55.124 38.0203 55.0782C38.8667 55.0338 39.5969 55.6664 39.6732 56.5101C41.3387 79.294 58.4789 97.9278 81.0444 101.487C82.1297 98.184 85.2184 95.9543 88.6955 95.9636ZM88.6955 99.1153C85.9818 99.112 83.78 101.31 83.7767 104.024C83.774 106.737 85.9712 108.94 88.6849 108.942C91.3985 108.945 93.6004 106.748 93.6037 104.035C93.605 101.322 91.4091 99.1206 88.6955 99.1153ZM150.829 113.294C137.908 113.294 127.434 123.769 127.434 136.689C127.434 149.609 137.908 160.083 150.829 160.083C163.749 160.083 174.223 149.609 174.223 136.689C174.227 123.772 163.757 113.298 150.84 113.294H150.829ZM150.829 110.144C165.488 110.148 177.368 122.035 177.364 136.694C177.36 151.354 165.473 163.234 150.814 163.23C136.158 163.226 124.28 151.345 124.278 136.69C124.28 122.028 136.166 110.143 150.829 110.144ZM26.5477 113.296C13.6273 113.296 3.15309 123.77 3.15309 136.69C3.15309 149.611 13.6273 160.085 26.5477 160.085C39.4681 160.085 49.9423 149.611 49.9423 136.69C49.939 123.771 39.4668 113.298 26.5477 113.296ZM26.5464 110.145C41.2106 110.142 53.1007 122.027 53.1034 136.691C53.1067 151.355 41.2212 163.245 26.557 163.248C11.8935 163.251 0.00331904 151.366 0 136.702V136.69C0.00132762 122.029 11.8868 110.144 26.5477 110.144L26.5464 110.145ZM89.0586 114.793C106.294 114.792 120.266 128.764 120.267 145.999C120.267 163.234 106.296 177.206 89.0612 177.206C71.8288 177.207 57.8576 163.24 57.8536 146.007C57.8516 128.772 71.8228 114.797 89.0586 114.796H89.0632L89.0586 114.793ZM89.0586 117.962C73.5693 117.964 61.0147 130.522 61.0173 146.012C61.0193 161.501 73.5779 174.056 89.0672 174.054C104.555 174.051 117.109 161.495 117.109 146.007C117.117 130.526 104.573 117.969 89.0911 117.962H89.0619M96.5789 44.7461V1.57723C96.5835 0.701669 97.2978 -0.00462387 98.174 2.27967e-05C98.1906 2.27967e-05 98.2065 2.27967e-05 98.2231 0.000686606C124.38 1.23139 141.276 18.4884 141.276 44.7427C141.277 45.6137 140.571 46.3206 139.7 46.3213H139.698H98.1554C97.2872 46.3246 96.5802 45.6236 96.5769 44.7553V44.7467L96.5789 44.7461ZM87.0751 54.1204V15.792C66.7307 16.6676 50.9473 33.8695 51.8222 54.214C52.6978 74.5584 69.8997 90.3418 90.2442 89.4669C108.796 88.669 123.859 74.1993 125.403 55.6949H88.659C87.7907 55.6982 87.0844 54.9973 87.0804 54.129V54.1157L87.0751 54.1204Z" fill="#221E1E"/>
<path d="M30.8135 145.766L34.2381 146.461C37.4283 147.096 40.144 149.175 41.5904 152.089L42.3803 153.669H44.5696L44.2941 153.163L43.313 151.224C41.6096 147.776 38.3942 145.322 34.6191 144.59L31.314 143.92L31.2562 143.462V140.445L31.9267 139.104C34.0124 134.946 34.7731 130.249 34.106 125.644L34.0821 125.453C33.4627 121.306 29.9167 118.228 25.724 118.197H25.3178C21.1298 118.218 17.5818 121.288 16.9598 125.429L16.9365 125.644C16.2701 130.249 17.0301 134.946 19.1158 139.104L19.7863 140.445V143.271L16.4812 143.941C12.7061 144.674 9.48993 147.127 7.78726 150.575L6.80549 152.515L6.60303 153.021H8.71991L9.50985 151.44C10.9563 148.526 13.6719 146.448 16.8622 145.812L20.2861 145.118L21.0767 146.387C22.6194 148.851 25.8661 149.601 28.3335 148.063C29.0053 147.63 30.3813 146.439 30.8135 145.766ZM28.3295 145.377C27.3504 146.937 25.2926 147.408 23.7313 146.43C23.3011 146.168 22.94 145.807 22.6778 145.377L21.6722 143.772V141.665C22.8504 142.074 24.0884 142.285 25.3364 142.287C26.5565 142.287 27.7692 142.094 28.9282 141.713L29.3597 141.565V143.792L28.3295 145.377Z" fill="#221E1E"/>
<path d="M94.9194 156.086L98.9998 156.914C102.803 157.671 106.039 160.149 107.763 163.621L108.705 165.505H111.313L110.987 164.902L109.817 162.591C107.787 158.481 103.954 155.556 99.4545 154.683L95.5148 153.885L95.4464 153.339V149.743L96.2457 148.145C98.7309 143.189 99.6377 137.59 98.8431 132.103L98.8139 131.874C98.0758 126.932 93.8493 123.263 88.8521 123.225H88.3676C83.3771 123.25 79.1473 126.91 78.4064 131.846L78.3786 132.103C77.584 137.59 78.4908 143.189 80.9754 148.145L81.7746 149.743V153.111L77.8356 153.91C73.3363 154.783 69.5028 157.708 67.4735 161.817L66.3032 164.129L66.0623 164.731H68.5847L69.5267 162.848C71.2506 159.375 74.4873 156.898 78.289 156.14L82.3714 155.313L83.3127 156.825C85.1521 159.762 89.0208 160.656 91.9621 158.824C92.7626 158.308 94.4029 156.887 94.9194 156.086ZM91.9581 155.621C90.7898 157.481 88.3377 158.042 86.477 156.877C85.9652 156.565 85.5344 156.134 85.2211 155.621L84.0223 153.709V151.197C85.4269 151.686 86.9025 151.936 88.3901 151.939C89.8445 151.939 91.2896 151.708 92.671 151.254L93.1855 151.078V153.733L91.9581 155.621Z" fill="#221E1E"/>
<path d="M156.013 145.766L159.438 146.461C162.628 147.096 165.343 149.175 166.79 152.089L167.58 153.669H169.769L169.494 153.163L168.512 151.224C166.809 147.776 163.594 145.322 159.819 144.59L156.513 143.92L156.456 143.462V140.445L157.126 139.104C159.212 134.946 159.973 130.249 159.305 125.644L159.282 125.453C158.662 121.306 155.116 118.228 150.924 118.197H150.517C146.329 118.218 142.781 121.288 142.159 125.429L142.136 125.644C141.47 130.249 142.23 134.946 144.315 139.104L144.986 140.445V143.271L141.681 143.941C137.906 144.674 134.689 147.127 132.987 150.575L132.005 152.515L131.802 153.021H133.919L134.709 151.44C136.156 148.526 138.871 146.448 142.062 145.812L145.486 145.118L146.276 146.387C147.819 148.851 151.066 149.601 153.533 148.063C154.205 147.63 155.581 146.439 156.013 145.766ZM153.529 145.377C152.55 146.937 150.492 147.408 148.931 146.43C148.501 146.168 148.139 145.807 147.877 145.377L146.872 143.772V141.665C148.05 142.074 149.288 142.285 150.536 142.287C151.756 142.287 152.969 142.094 154.128 141.713L154.559 141.565V143.792L153.529 145.377Z" fill="#221E1E"/>
<path d="M37.4727 48.4474C36.8899 48.4474 36.3429 48.1679 36.001 47.6953L24.2058 31.3636C23.7478 30.729 23.7478 29.8727 24.2058 29.2381L36.001 12.9064C36.3429 12.4338 36.8899 12.1543 37.4727 12.1543C38.0549 12.1543 38.6025 12.4338 38.9437 12.9064L50.7389 29.2381C51.197 29.8727 51.197 30.729 50.7389 31.3636L38.9437 47.6953C38.6025 48.1679 38.0549 48.4474 37.4727 48.4474ZM27.9159 30.3008L37.4727 43.5332L47.0289 30.3008L37.4727 17.0685L27.9159 30.3008Z" fill="#221E1E"/>
<path d="M37.4719 36.7896C37.2635 36.7896 37.0677 36.69 36.9455 36.5208L32.7277 30.6806C32.5644 30.4542 32.5644 30.1475 32.7277 29.9212L36.9455 24.081C37.0677 23.9117 37.2635 23.8121 37.4719 23.8121C37.6804 23.8121 37.8762 23.9117 37.9983 24.081L42.2155 29.9212C42.3795 30.1475 42.3795 30.4542 42.2155 30.6806L37.9983 36.5208C37.8762 36.69 37.6804 36.7896 37.4719 36.7896ZM34.0546 30.3009L37.4719 35.0325L40.8892 30.3009L37.4719 25.5692L34.0546 30.3009Z" fill="#221E1E"/>
</svg>
