<svg width="165" height="167" viewBox="0 0 165 167" fill="none" xmlns="http://www.w3.org/2000/svg">
<path d="M11.245 166.366H153.756L150.966 146.813L155.997 134.942L149.54 124.192L145.106 130.72L138.926 128.905C138.926 128.905 136.303 133.757 131.398 133.757C126.492 133.757 123.774 128.626 123.774 128.626C123.774 128.626 107.517 129.761 106.911 140.147L99.7165 141.224L93.9935 139.797C93.9935 139.797 89.0816 143.385 82.5013 143.385C75.9211 143.385 71.0554 139.797 71.0554 139.797L59.2899 142.73C59.2899 142.73 61.1726 128.625 41.2717 128.625C41.2717 128.625 38.0275 134.081 33.6393 134.081C29.2511 134.081 26.1194 128.904 26.1194 128.904L19.9397 130.719L15.4704 124.226L9.01074 134.942L14.0338 146.815L11.245 166.366Z" fill="white"/>
<path d="M59.5646 106.946C59.5988 107.086 59.5988 107.261 59.6343 107.4C60.9007 115.042 64.4846 122.11 69.9001 127.648V137.145L60.8572 139.414L59.4253 136.587C56.9338 131.568 52.2496 127.993 46.751 126.915L41.9342 125.931V121.811L44.4833 116.713C46.5079 112.706 47.2406 108.168 46.5796 103.726L44.6949 90.5637C44.5911 89.8752 43.9963 89.3689 43.2998 89.3763H33.5202C27.2226 89.4064 21.8934 94.0377 20.9866 100.27C20.0127 106.983 21.1198 113.832 24.1598 119.896L25.141 121.855V126.253L21.3703 128.136L19.9397 126.253C16.1041 121.143 14.2442 114.819 14.7023 108.446L16.7276 80.1264L18.8923 76.8795C21.8204 72.4786 20.6256 66.5373 16.2247 63.6098C12.8458 61.3615 8.41609 61.4894 5.17251 63.9286L4.89389 64.1429C1.82177 66.4636 0.422669 70.387 1.33218 74.1275L2.7641 79.8183L0.559967 114.52C0.241167 119.273 1.09241 124.032 3.0387 128.38L11.2451 146.849L8.48708 165.983L11.2451 166.366L14.0339 146.815C14.0674 146.554 14.0306 146.289 13.9268 146.047L9.01082 134.942L15.4705 124.226C16.1557 125.506 16.9379 126.731 17.8099 127.891L19.9397 130.719C20.357 131.241 21.0756 131.414 21.6851 131.138L26.1195 128.904L27.0966 130.475C29.3463 134.067 34.0787 135.161 37.676 132.919C38.6558 132.288 39.489 131.455 40.1192 130.475L41.2718 128.625L46.2641 129.637C50.9209 130.55 54.8857 133.582 56.9847 137.838L58.1367 140.142C51.6656 141.935 46.4382 146.709 44.0673 152.991L39.2847 165.738L41.9034 166.715L46.6867 153.972C48.7904 148.385 53.5 144.184 59.29 142.73L71.0554 139.797C77.9532 144.581 87.0959 144.581 93.9936 139.797L105.759 142.73C111.556 144.172 116.27 148.378 118.362 153.972L123.146 166.716L125.764 165.739L120.981 152.995C118.619 146.706 113.388 141.929 106.911 140.147L108.063 137.842C110.172 133.595 114.131 130.565 118.782 129.639L123.775 128.626L124.926 130.477C127.175 134.068 131.909 135.161 135.505 132.92C136.485 132.29 137.319 131.456 137.949 130.477L138.926 128.905L143.361 131.14C143.966 131.451 144.709 131.273 145.106 130.72L147.166 127.962C148.062 126.774 148.856 125.513 149.54 124.192L155.997 134.942L151.074 146.045C150.968 146.286 150.931 146.552 150.966 146.813L153.756 166.364L156.514 165.981L153.79 146.813L161.959 128.412C163.912 124.018 164.752 119.209 164.403 114.413L162.111 82.5375L163.368 77.5794C164.409 73.447 162.434 69.1473 158.62 67.2452L157.922 66.8956C153.434 64.6513 147.976 66.471 145.732 70.9589C144.275 73.8737 144.49 77.3456 146.296 80.0574L148.181 82.8851L150.136 108.337C150.633 114.758 148.771 121.138 144.899 126.283L143.538 128.098L139.767 126.212V121.814L140.745 119.858C143.785 113.797 144.894 106.948 143.922 100.236L143.886 99.9576C142.983 93.9125 137.814 89.4238 131.702 89.3783H131.11C125.004 89.4084 119.832 93.8843 118.924 99.9221L118.89 100.236C117.918 106.948 119.027 113.797 122.067 119.858L123.044 121.814V125.934L118.226 126.911C112.723 127.978 108.035 131.556 105.552 136.582L104.121 139.41L95.0779 137.14V127.648C100.487 122.072 104.257 115.114 105.971 107.537L108.173 90.0105C108.15 87.5713 107.987 85.1361 107.683 82.7157L106.212 71.0514C106.101 70.2879 105.407 69.7487 104.64 69.8291C104.336 69.8619 104.053 69.9972 103.837 70.2135C98.7528 75.3411 91.8203 78.2103 84.5997 78.1741H80.1305C72.0467 78.2076 64.7002 82.8811 61.2423 90.1887L61.0675 90.1532C61.0675 90.1532 57.2506 105.251 59.5646 106.946ZM7.64588 131.831L5.58641 127.218C3.84172 123.285 3.07352 118.988 3.34879 114.693L5.68821 79.7098C5.69424 79.5692 5.68285 79.4285 5.65406 79.2906L4.18798 73.3908C3.51757 70.7373 4.50946 67.9417 6.70087 66.3035L6.98015 66.0885C9.97392 63.8415 14.2221 64.447 16.4691 67.4408C18.1951 69.7407 18.2821 72.8791 16.6861 75.2714L14.3119 78.8325C14.1799 79.0314 14.0962 79.2584 14.0674 79.4955L12.0079 108.195C11.6985 112.61 12.391 117.038 14.0332 121.148L7.64588 131.831ZM37.7409 129.004C36.313 131.278 33.3132 131.965 31.0381 130.54C30.4106 130.157 29.8841 129.631 29.5017 129.004L28.035 126.664V123.417L28.6639 123.631C30.3536 124.19 32.1217 124.472 33.9006 124.469C35.7196 124.466 37.5253 124.16 39.2432 123.561V126.672L37.7409 129.004ZM72.7245 137.523V129.632C78.8017 133.018 86.1991 133.018 92.2764 129.632V137.523C86.3879 141.573 78.6129 141.573 72.7245 137.523ZM135.5 129.004C134.072 131.278 131.072 131.965 128.797 130.54C128.169 130.157 127.643 129.631 127.261 129.004L125.794 126.664V123.592C127.512 124.189 129.317 124.496 131.136 124.499C132.915 124.5 134.683 124.216 136.373 123.661L137.002 123.447V126.694L135.5 129.004ZM159.381 127.293L157.356 131.831L150.932 121.148C152.571 117.014 153.24 112.559 152.886 108.125L150.897 82.289C150.868 82.0519 150.785 81.8249 150.652 81.626L148.557 78.4842C146.628 75.5929 147.408 71.6863 150.298 69.7574C152.183 68.4996 154.598 68.3523 156.622 69.371L157.32 69.7212C159.972 71.0272 161.343 74.0163 160.602 76.8782L159.315 82.0807C159.284 82.2301 159.273 82.3828 159.28 82.5348L161.584 114.691C161.923 119.01 161.166 123.344 159.384 127.294L159.381 127.293Z" fill="#221E1E"/>
<path d="M39.1736 82.6768L41.9624 68.7112C41.9972 68.5029 41.9972 68.2906 41.9624 68.0823L40.6751 62.8811C39.9344 60.0186 41.3047 57.0302 43.9569 55.7235L44.6554 55.3739C47.7798 53.8261 51.5679 55.1053 53.1157 58.2297C54.1149 60.2476 53.9636 62.6447 52.7199 64.5213L50.6249 67.6631C50.4762 67.8928 50.3918 68.158 50.3804 68.4313V82.3968H53.1692V68.8519L55.0198 66.0624C57.8066 61.8925 56.6861 56.2526 52.5162 53.4658C49.7984 51.6494 46.3144 51.4331 43.3936 52.9005L42.6951 53.2488C38.8695 55.1395 36.8897 59.4493 37.9473 63.5836L39.1736 68.4641L36.4497 82.1155L39.1736 82.6768Z" fill="#221E1E"/>
<path d="M80.4097 42.0715L79.7111 41.7219C75.2232 39.4776 69.7654 41.2973 67.5211 45.7852C66.0644 48.7 66.2794 52.1719 68.085 54.8837L69.9355 57.6732V71.2195H72.725V57.2593C72.7351 56.982 72.6487 56.7108 72.4799 56.4911L70.3849 53.3487C68.4561 50.458 69.2356 46.5507 72.1269 44.6219C74.0116 43.3648 76.4267 43.2174 78.45 44.2361L79.1479 44.5857C81.8001 45.8924 83.1704 48.8815 82.4296 51.7433L81.1424 56.9459C81.0902 57.1522 81.0902 57.3678 81.1424 57.5741L83.9312 71.5403L86.6551 70.9811L83.9332 57.3256L85.1555 52.4371C86.2043 48.2948 84.2286 43.9809 80.4077 42.0681L80.4097 42.0715Z" fill="#221E1E"/>
<path d="M113.927 39.2792L113.229 38.9296C108.741 36.6853 103.283 38.505 101.039 42.993C99.582 45.9077 99.797 49.3797 101.603 52.0915L103.453 54.881V62.8469H106.242V54.4677C106.253 54.1911 106.166 53.9192 105.997 53.6995L103.902 50.5578C101.974 47.6671 102.753 43.7598 105.645 41.831C107.529 40.5732 109.944 40.4258 111.968 41.4452L112.665 41.7948C115.318 43.1008 116.688 46.0899 115.947 48.9517L114.66 54.1543C114.63 54.3043 114.619 54.4564 114.624 54.6084L117.413 85.3323L120.203 85.0872L117.445 54.6084L118.666 49.6503C119.715 45.5079 117.739 41.194 113.919 39.2813L113.927 39.2792Z" fill="#221E1E"/>
<path d="M131.377 82.5369L134.166 54.6058C134.172 54.4417 134.16 54.2776 134.131 54.1162L132.844 48.9136C132.103 46.0518 133.474 43.0627 136.126 41.7567L136.824 41.4071C139.947 39.8573 143.736 41.1338 145.285 44.2569C146.286 46.2761 146.135 48.6759 144.889 50.5538L142.794 53.6956C142.645 53.9253 142.561 54.1905 142.549 54.4638V60.0508H145.338V54.8831L147.189 52.0942C149.976 47.9244 148.854 42.2845 144.685 39.4977C141.967 37.6813 138.483 37.465 135.563 38.9317L134.864 39.282C131.038 41.172 129.058 45.4825 130.116 49.6162L131.338 54.5743L128.58 82.2609L131.377 82.5369Z" fill="#221E1E"/>
<path d="M164.686 31.2477C157.459 21.9959 146.041 14.1746 131.694 8.62306C115.951 2.80095 99.2839 -0.11914 82.5 0.00409377C65.7122 -0.125167 49.0422 2.80765 33.3072 8.65855C18.9572 14.2101 7.5407 22.03 0.314807 31.2464C0.109195 31.4909 -0.00198248 31.801 2.67633e-05 32.1198L0.107856 54.4645C1.64559 54.4645 2.89065 53.2134 2.88261 51.6757L2.78952 32.6093C4.53086 30.4541 6.43294 28.4348 8.48035 26.5682C8.48303 27.6097 8.72146 28.6364 9.17823 29.572L11.588 34.4947L19.722 60.4353L22.3749 59.5974L14.559 34.703L22.4847 30.8626L36.6593 49.7153L38.8935 48.0403L24.0901 28.3839L21.7165 23.4961C20.9115 21.8305 19.4809 20.5506 17.7369 19.9351C17.5922 19.9043 17.4523 19.8574 17.3183 19.7951C25.451 14.6756 34.2823 10.7595 43.5375 8.16964C43.3547 8.38798 43.1913 8.62105 43.0486 8.86751C42.0695 10.4394 41.7554 12.3361 42.1753 14.1398L43.3969 19.4823L44.7913 46.1931L47.5808 46.0532L46.2614 20.3851L54.7451 18.4301L61.6234 40.9149L64.2762 40.1118L57.0142 16.4048L55.7571 10.9926C55.3418 9.1823 54.222 7.61174 52.6461 6.62922C52.3119 6.42696 51.9616 6.25149 51.5993 6.10548C59.8894 4.2898 68.3255 3.21687 76.8065 2.90008C75.9399 4.08553 75.4751 5.51677 75.4797 6.98486V12.3937L69.9684 34.5643L72.6916 35.2274L77.9973 13.9301H87.0081L92.3151 35.2274L95.039 34.5643L89.4841 12.3937V6.98285C89.4888 5.51543 89.024 4.08486 88.158 2.90008C96.6404 3.21687 105.076 4.29181 113.367 6.11151C112.998 6.24412 112.647 6.41959 112.32 6.63525C110.744 7.61844 109.625 9.18832 109.21 10.9993L107.952 16.4109L103.485 31.736L106.174 32.5042L110.294 18.3987L118.917 20.3851L120.205 35.0137L122.994 34.7693L121.599 19.3725L122.787 14.1357C123.207 12.3321 122.892 10.4354 121.913 8.8635C121.763 8.62239 121.599 8.38932 121.424 8.16495C130.682 10.7562 139.516 14.6735 147.651 19.7951C147.507 19.8259 147.366 19.8728 147.233 19.9351C145.482 20.5392 144.047 21.8224 143.253 23.4961L140.809 28.5239C140.475 29.1983 140.75 30.0168 141.424 30.3516C141.44 30.3597 141.456 30.367 141.473 30.3744L151.528 35.2629C152.203 35.5978 153.02 35.3225 153.356 34.6481C153.363 34.6326 153.371 34.6166 153.379 34.5998L155.822 29.572C156.279 28.6364 156.518 27.6097 156.52 26.5682C158.576 28.4268 160.479 30.4467 162.211 32.6093L162.115 57.262C162.109 58.8011 163.354 60.0515 164.893 60.0515L165 32.1198C165.003 31.801 164.892 31.4909 164.686 31.2464V31.2477Z" fill="#221E1E"/>
</svg>
