<svg width="183" height="147" viewBox="0 0 183 147" fill="none" xmlns="http://www.w3.org/2000/svg">
<path d="M175.152 121.327H172.544V13.0434C172.544 5.84052 166.704 0.000701902 159.501 0H23.1051C15.9022 0.000701902 10.0631 5.84052 10.0631 13.0434V121.327H7.45341C3.33746 121.328 0.00132032 124.665 0.00132032 128.781V139.141C-0.0197367 143.257 3.30026 146.611 7.41551 146.632H7.45481V146.631H175.152C179.268 146.631 182.605 143.294 182.605 139.177V128.781C182.605 124.665 179.268 121.327 175.152 121.327ZM115.676 125.053V128.407C115.676 130.465 114.008 132.134 111.949 132.134H70.6583C68.6003 132.134 66.9319 130.467 66.9312 128.409V128.407V125.053H115.676ZM90.4968 121.327H63.2055H26.8287V16.7691H90.4968V121.327Z" fill="white"/>
<path d="M7.45359 146.642H175.151C179.267 146.642 182.604 143.305 182.604 139.189V128.793C182.604 124.676 179.267 121.338 175.151 121.338H172.542V13.0547C172.542 5.85176 166.703 0.0119324 159.5 0.0112305H23.1039C15.901 0.0119324 10.0619 5.85176 10.0619 13.0547V121.338H7.45219C3.33624 121.339 9.96351e-05 124.676 9.96351e-05 128.793V139.153C-0.0209574 143.269 3.29834 146.622 7.41429 146.643H7.45359V146.642ZM13.789 13.054C13.7883 7.90833 17.959 3.73693 23.1039 3.73693H23.1053H159.501C164.646 3.73693 168.817 7.90763 168.817 13.0526V13.054V121.338H159.5V14.9161C159.5 13.8871 158.665 13.0526 157.636 13.0526H24.9688C23.9392 13.0526 23.1053 13.8871 23.1053 14.9161V121.338H13.7883L13.789 13.054ZM63.2043 121.338H26.8275V16.7804H90.4956V121.338H63.2043ZM115.675 125.064V128.418C115.675 130.477 114.007 132.145 111.948 132.145H70.657C68.5991 132.146 66.93 130.478 66.93 128.42V128.418V125.064H115.675ZM3.72579 128.791C3.72579 126.733 5.39421 125.065 7.45219 125.064H63.2035V128.418C63.2035 132.534 66.5404 135.871 70.657 135.871H111.947C116.063 135.871 119.401 132.534 119.401 128.418V125.064H175.151C177.209 125.064 178.877 126.733 178.877 128.791V139.152C178.877 141.21 177.209 142.878 175.151 142.879H7.44658C5.3879 142.878 3.72018 141.21 3.72018 139.152L3.72579 128.791ZM81.7366 31.9534C81.2277 31.6024 80.5784 31.5259 80.0022 31.7498L48.3274 43.9706C47.6101 44.2472 47.1363 44.9365 47.1349 45.705V91.7933C42.873 88.4059 36.6724 89.1156 33.2857 93.3775C29.899 97.6395 30.6079 103.84 34.8699 107.227C39.1318 110.613 45.3324 109.904 48.7191 105.643C50.1138 103.888 50.8683 101.71 50.8592 99.4693V59.4932L78.8089 48.7232V83.7614C74.5456 80.3762 68.345 81.0879 64.9604 85.3513C61.5751 89.6139 62.2869 95.8145 66.5502 99.1998C70.8129 102.585 77.0135 101.873 80.3987 97.61C81.792 95.8552 82.5459 93.6786 82.536 91.4381V33.4828C82.536 32.8722 82.237 32.3008 81.7351 31.9527L81.7366 31.9534ZM41.6882 105.618C41.6931 104.206 42.8414 103.066 44.2536 103.071C45.6651 103.076 46.8057 104.225 46.8008 105.636C46.7952 107.048 45.6469 108.188 44.2354 108.183C42.8308 108.178 41.6931 107.041 41.6882 105.636V105.618ZM73.3636 97.5868C73.3692 96.1788 74.5147 95.041 75.9234 95.0459C77.3314 95.0508 78.4692 96.197 78.4643 97.605C78.4587 99.0138 77.3132 100.152 75.9044 100.147C74.5035 100.141 73.3692 99.0068 73.3636 97.605V97.5868ZM79.5108 44.7175L51.5611 55.4881V46.9727L79.5108 36.1992V44.7175ZM102.96 73.6V57.3334C102.936 56.3045 103.751 55.4509 104.78 55.4264C105.808 55.4025 106.662 56.2174 106.686 57.2464C106.687 57.2752 106.687 57.3047 106.686 57.3334V73.6204C106.71 74.6494 105.896 75.5036 104.867 75.5274C103.838 75.5513 102.985 74.7371 102.96 73.7081C102.959 73.6786 102.959 73.6498 102.96 73.6204V73.6ZM114.568 73.6V49.3767C114.568 48.3477 115.403 47.5138 116.432 47.5138C117.461 47.5138 118.294 48.3477 118.294 49.3767V73.6C118.294 74.629 117.461 75.4636 116.432 75.4636C115.403 75.4636 114.568 74.629 114.568 73.6ZM126.197 73.6V61.9358C126.196 60.9068 127.03 60.0716 128.059 60.0709C129.089 60.0702 129.924 60.904 129.924 61.9337V61.9358V73.6204C129.924 74.65 129.089 75.4839 128.059 75.4832C127.031 75.4825 126.198 74.6487 126.197 73.6204V73.6ZM137.805 73.6V43.3579C137.805 42.3289 138.639 41.4943 139.668 41.4943C140.697 41.4943 141.532 42.3289 141.532 43.3579V73.6204C141.532 74.6494 140.697 75.4839 139.668 75.4839C138.639 75.4839 137.805 74.6494 137.805 73.6204V73.6ZM149.434 73.6V63.5755C149.434 62.5465 150.268 61.7119 151.297 61.7119C152.326 61.7119 153.16 62.5465 153.16 63.5755V73.5811C153.16 74.61 152.326 75.4439 151.297 75.4439C150.268 75.4439 149.434 74.61 149.434 73.5811V73.6ZM102.959 92.0285C102.959 91.0002 103.793 90.1656 104.821 90.1656H104.823H151.294C152.323 90.1656 153.156 91.0002 153.156 92.0292C153.156 93.0581 152.323 93.892 151.294 93.892H104.823C103.794 93.8927 102.96 93.0595 102.959 92.0305V92.0285ZM153.157 106.058C153.156 107.087 152.322 107.921 151.294 107.921H143.56C142.531 107.921 141.697 107.087 141.697 106.058C141.697 105.029 142.531 104.195 143.56 104.195H151.294C152.323 104.195 153.157 105.029 153.157 106.058ZM135.852 107.923H104.823C103.794 107.923 102.959 107.089 102.959 106.06C102.959 105.031 103.794 104.197 104.823 104.197H135.852C136.881 104.197 137.715 105.031 137.715 106.06C137.715 107.089 136.881 107.923 135.852 107.923Z" fill="#221E1E"/>
</svg>
